<?xml version="1.0" standalone="no"?>
<!DOCTYPE svg PUBLIC "-//W3C//DTD SVG 20010904//EN"
 "http://www.w3.org/TR/2001/REC-SVG-20010904/DTD/svg10.dtd">
<svg version="1.0" xmlns="http://www.w3.org/2000/svg"
 width="256.000000pt" height="256.000000pt" viewBox="0 0 256.000000 256.000000"
 preserveAspectRatio="xMidYMid meet">

<g transform="translate(0.000000,256.000000) scale(0.100000,-0.100000)"
fill="#ff0000" stroke="none">
<path d="M577 2553 c-4 -3 -7 -37 -7 -75 0 -49 7 -85 24 -129 l25 -60 -55 -24
c-162 -72 -335 -221 -411 -356 -52 -91 -61 -129 -38 -153 17 -16 16 -21 -13
-84 -53 -117 -82 -236 -82 -333 0 -52 8 -62 51 -61 16 0 29 -5 29 -11 0 -7 -5
-55 -10 -107 -18 -167 20 -402 69 -426 14 -7 33 -9 45 -5 19 8 22 19 28 120 8
150 15 163 38 73 29 -111 98 -236 176 -315 68 -71 103 -92 135 -82 22 7 25 47
8 92 -5 15 -6 24 -2 18 5 -5 44 -47 87 -91 l78 -82 -83 -41 c-146 -73 -251
-156 -341 -269 -65 -83 -76 -124 -35 -143 19 -8 36 -5 87 15 72 30 90 32 90
12 0 -8 8 -17 18 -22 9 -4 130 -9 267 -12 197 -3 275 0 370 13 300 41 567 143
763 290 33 25 102 89 151 142 50 52 91 93 91 90 0 -3 -11 -44 -25 -91 -30
-104 -31 -122 -6 -136 47 -25 106 33 175 170 37 74 53 126 83 260 5 25 5 25
13 3 5 -12 18 -24 29 -28 36 -11 59 11 72 72 14 65 18 258 7 344 -8 55 -7 57
17 63 23 6 25 11 25 59 0 176 -149 443 -332 596 -40 33 -111 91 -158 130 -47
39 -122 91 -167 117 -46 25 -83 48 -83 50 0 2 30 19 68 38 64 32 129 95 160
153 18 33 15 158 -3 173 -20 17 -110 7 -185 -19 -30 -10 -109 -26 -175 -36
-119 -17 -121 -17 -189 4 -77 24 -149 26 -262 10 -56 -9 -89 -9 -128 -1 -28 7
-96 16 -152 21 -94 9 -184 37 -200 62 -6 10 -127 12 -137 2z m135 -294 c-4 -3
-36 -18 -72 -34 -135 -59 -292 -171 -359 -257 -56 -71 -58 -74 -18 -44 114 84
177 115 177 84 0 -6 -33 -46 -73 -87 -87 -90 -154 -183 -208 -287 -21 -41 -39
-68 -39 -58 0 26 73 165 121 230 23 33 70 88 103 123 34 35 52 59 41 53 -40
-21 -141 -100 -193 -151 -28 -29 -52 -48 -52 -44 0 5 22 45 49 89 91 147 259
285 440 360 80 34 77 32 63 46 -7 7 -12 17 -12 23 0 5 9 -1 20 -15 10 -14 16
-28 12 -31z m1179 17 c-18 -19 -81 -57 -139 -86 l-107 -53 50 -17 c129 -44
215 -102 454 -304 64 -54 164 -169 190 -219 26 -48 34 -56 -79 79 -33 38 -90
95 -127 125 -36 30 -96 79 -132 110 -112 95 -240 170 -338 199 -24 7 -43 18
-43 25 0 6 54 38 120 70 66 32 130 68 142 80 13 13 27 23 32 24 6 1 -5 -14
-23 -33z m-288 -215 c209 -54 416 -222 514 -419 20 -40 33 -75 30 -78 -3 -3
-19 20 -35 53 -43 85 -113 173 -196 247 -92 83 -168 128 -265 160 -119 39
-145 41 -185 17 -41 -26 -59 -62 -79 -161 -9 -41 -20 -87 -25 -101 -17 -42
-62 -89 -87 -89 -14 0 -26 -7 -30 -19 -3 -10 -22 -35 -42 -56 -26 -27 -38 -34
-47 -25 -8 8 -8 13 2 18 15 10 25 104 16 146 l-7 30 -24 -49 c-29 -58 -71
-105 -130 -146 -54 -37 -78 -38 -27 -1 59 43 123 117 144 167 19 44 41 57 56
33 4 -7 9 -39 10 -71 1 -32 5 -61 8 -64 2 -3 12 9 21 26 11 22 23 31 40 31 45
0 88 84 110 215 10 61 34 104 74 131 43 29 56 29 154 5z m53 -91 c90 -36 135
-64 222 -139 160 -138 275 -361 275 -537 1 -56 -3 -68 -48 -140 -58 -93 -203
-242 -294 -304 -86 -58 -229 -124 -326 -150 -44 -12 -95 -29 -113 -38 -29 -13
-33 -19 -30 -44 5 -33 13 -30 -147 -54 -60 -8 -127 -18 -147 -21 -32 -5 -46 1
-105 40 -87 58 -212 185 -257 261 -41 68 -80 182 -97 278 -10 65 -10 69 17
119 47 85 131 152 284 226 74 36 154 81 178 100 35 29 42 31 42 16 0 -28 20
-43 55 -43 38 0 64 17 99 69 16 23 37 41 46 41 25 0 75 60 93 111 9 24 23 80
32 123 29 135 64 149 221 86z m-1359 -312 c-11 -46 -32 -98 -39 -98 -6 0 1 33
18 75 7 20 7 20 -17 0 -13 -10 -36 -33 -51 -50 -14 -16 -29 -27 -32 -24 -3 3
17 31 45 62 53 60 86 75 76 35z m-122 -720 c4 29 12 55 18 59 6 4 7 -4 3 -21
-4 -15 -7 -70 -7 -123 0 -53 -4 -92 -8 -87 -14 16 -29 88 -35 164 l-5 75 13
-60 13 -60 8 53z m153 16 c24 -89 132 -288 147 -272 2 2 -4 37 -15 77 -18 71
-24 137 -19 211 1 21 5 7 9 -36 16 -147 73 -336 110 -359 5 -3 10 -10 10 -16
0 -5 -25 19 -57 54 -31 34 -69 75 -85 91 -37 38 -93 155 -112 234 -16 72 -6
85 12 16z m176 -26 c15 -40 43 -100 62 -134 42 -77 169 -222 245 -282 33 -25
59 -53 59 -63 0 -12 -17 -24 -55 -38 -70 -27 -165 -74 -234 -118 -29 -19 -55
-32 -58 -29 -12 12 211 140 290 165 20 7 37 16 37 20 0 4 -22 23 -49 43 -75
56 -213 217 -255 298 -39 74 -89 210 -76 210 3 0 19 -33 34 -72z m71 45 c12
-50 81 -187 116 -230 49 -61 183 -178 251 -219 l58 -36 123 21 c67 11 175 28
240 36 64 9 143 23 175 31 89 22 202 65 202 76 0 6 -7 8 -15 4 -52 -19 -181
-36 -260 -34 l-90 3 109 28 c193 49 354 138 498 275 43 41 81 72 84 69 10 -9
-147 -161 -211 -204 -77 -51 -172 -100 -255 -129 -82 -28 -61 -30 49 -4 93 23
111 21 111 -10 0 -41 -181 -96 -420 -130 -80 -11 -188 -27 -241 -36 l-97 -17
-68 38 c-105 59 -262 217 -312 313 -42 81 -77 182 -63 182 5 0 12 -12 16 -27z
m1742 -128 c-6 -146 -23 -212 -82 -330 -41 -81 -120 -191 -100 -140 34 88 72
390 43 340 -6 -11 -14 -22 -17 -25 -4 -3 -19 -25 -35 -50 -49 -76 -153 -193
-221 -251 -83 -68 -175 -129 -195 -129 -8 0 8 14 35 30 126 73 250 197 354
352 21 31 45 64 54 73 10 9 17 21 17 26 0 18 29 9 35 -12 7 -23 -2 -173 -15
-233 -13 -58 5 -32 46 67 41 100 59 190 70 337 10 137 18 99 11 -55z m86 80
l14 -60 7 60 c11 89 14 89 14 0 0 -44 -5 -102 -12 -130 l-12 -50 -8 55 c-8 62
-25 155 -33 185 -4 14 -2 17 6 10 6 -6 17 -37 24 -70z"/>
</g>
</svg>
